<svg width="28" height="30" viewBox="0 0 28 30" fill="none" xmlns="http://www.w3.org/2000/svg">
<g clip-path="url(#clip0_1_217)">
<path d="M20.52 20.1457L20.5149 20.1415C21.6584 18.5277 23.6838 14.7068 21.8092 9.71853C22.097 5.45012 22.0963 5.45097 17.9209 6.56148C11.9695 5.55599 8.602 9.08582 7.60589 10.3517C6.57158 11.5865 3.80821 15.6075 6.01448 21.2256C5.78545 25.5397 5.78476 25.5405 9.90275 24.3827C15.1691 25.1918 18.4942 22.4247 19.8381 20.9751L19.8432 20.9792C19.8432 20.9792 19.9802 20.8383 20.1927 20.5714C20.4051 20.3045 20.52 20.1457 20.52 20.1457Z" fill="#FCD114"/>
</g>
<defs>
<clipPath id="clip0_1_217">
<rect width="16.2143" height="24.1304" fill="white" transform="translate(15.21 0.984253) rotate(39.0746)"/>
</clipPath>
</defs>
</svg>
